<svg width="232" height="328" viewBox="0 0 232 328" fill="none" xmlns="http://www.w3.org/2000/svg">
<mask id="mask0" mask-type="alpha" maskUnits="userSpaceOnUse" x="-51" y="0" width="283" height="336">
<path d="M231.383 43.8857L5.61054 5.7299e-05L-51 291.236L174.772 335.122L231.383 43.8857Z" fill="white"/>
</mask>
<g mask="url(#mask0)">
<path fill-rule="evenodd" clip-rule="evenodd" d="M-2.23941 293.942C-37.5098 256.163 -35.4917 200.352 -23.5933 152.326C-21.6068 144.308 -20.6884 135.61 -15.3512 129.337C-10.0142 123.069 -0.0417639 120.122 6.45195 125.057C11.8379 129.15 12.9673 136.678 15.0932 143.157C17.9173 151.777 23.2088 159.537 30.1586 165.254C34.7236 169.011 40.7262 171.991 46.3884 170.266C54.1518 167.899 57.0118 158.452 58.6665 150.406C61.7492 135.417 64.8313 120.431 67.9098 105.443C69.5649 97.4047 71.2783 89.1978 75.3902 82.1051C79.4984 75.0106 86.5088 69.1007 94.589 68.5779C102.669 68.056 111.162 74.4612 111.105 82.664C111.082 86.0764 109.696 89.3316 109.213 92.7126C108.727 96.0942 109.496 100.11 112.46 101.708C115.46 103.331 119.149 101.735 122.046 99.8902C132.036 93.5388 139.867 84.2839 147.316 75.0078C154.768 65.7322 162.117 56.1789 171.5 48.9251C180.88 41.6756 192.751 36.8704 204.369 38.6541C215.986 40.4396 226.713 50.1324 227.217 62.0383C227.726 73.9799 218.698 84.0675 209.578 91.7098C196.052 103.05 180.908 112.405 164.781 119.382C161.873 120.644 158.721 122.003 157.122 124.772C154.247 129.759 158.183 136.15 163.086 139.028C168.64 142.292 175.252 143.043 181.346 145.109C187.441 147.172 193.626 151.372 194.734 157.791C196.276 166.695 187.6 173.846 179.664 178.051C163.769 186.473 146.463 192.115 128.735 194.661C122.381 195.573 115.772 196.153 110.137 199.295C104.501 202.437 100.102 209.047 101.775 215.311C103.448 221.585 110.438 224.959 116.857 225.118C123.273 225.282 129.519 223.097 135.875 222.122C147.773 220.29 161.839 224.072 166.87 235.107C170.178 242.359 168.736 251.179 164.805 258.152C160.876 265.13 154.755 270.557 148.442 275.425C126.384 292.431 100.239 304.343 72.8026 307.797C45.3703 311.252 21.1816 308.634 -2.23922 293.941" fill="#00CCCC"/>
<path fill-rule="evenodd" clip-rule="evenodd" d="M-20.5004 366.792C-19.1683 355.825 -17.4139 349.855 -11.5359 330.946C-5.70698 312.038 3.30048 290.157 15.6316 267.131C27.9183 244.077 43.4586 219.923 60.5685 195.22C64.8682 189.064 69.1148 182.976 73.3031 176.979C77.4965 171.002 81.6561 165.074 86.0778 159.527C94.8723 148.395 104.165 138.367 113.28 129.126C122.393 119.875 131.375 111.429 139.827 103.596C148.305 95.7801 156.337 88.6417 163.932 82.4531C179.094 70.0106 192.464 61.4505 201.882 55.9525C206.586 53.1873 210.304 51.1634 212.845 49.8267C214.064 49.1947 215.016 48.6973 215.738 48.3231C216.394 47.9922 216.735 47.8344 216.749 47.8575C216.762 47.8835 216.444 48.0865 215.809 48.4602C215.108 48.869 214.171 49.409 212.985 50.0964C210.493 51.5241 206.825 53.6269 202.172 56.4662C192.858 62.1179 179.626 70.7873 164.595 83.2942C157.062 89.5201 149.088 96.6894 140.662 104.538C132.252 112.407 123.315 120.871 114.251 130.121C105.186 139.37 95.9481 149.381 87.219 160.464C82.8291 165.989 78.7158 171.868 74.5138 177.862C70.3328 183.859 66.0895 189.945 61.7921 196.1C44.6989 220.78 29.1608 244.849 16.84 267.801C4.48278 290.72 -4.58659 312.468 -10.5234 331.266C-16.5108 350.067 -18.4131 355.944 -19.9173 366.863" fill="#263238"/>
<path fill-rule="evenodd" clip-rule="evenodd" d="M89.1949 157.069C89.1063 157.07 89.1292 155.793 89.2401 153.488C89.3424 151.186 89.5875 147.854 89.9426 143.737C90.6453 135.51 91.9526 124.162 93.4331 111.656C94.916 99.1428 96.0799 87.8148 96.6732 79.6052C96.9772 75.4997 97.1975 72.1757 97.3243 69.8777C97.4593 67.5792 97.5799 66.3038 97.6695 66.2988C97.7599 66.295 97.8121 67.5622 97.8323 69.8582C97.8644 72.1566 97.7843 75.4926 97.5935 79.6139C97.237 87.8573 96.215 99.2415 94.7305 111.768C93.2408 124.107 91.8913 135.268 90.8627 143.799C90.419 147.654 90.0461 150.904 89.7491 153.511C89.4787 155.803 89.2881 157.072 89.1949 157.069Z" fill="#263238"/>
<path fill-rule="evenodd" clip-rule="evenodd" d="M195.081 159.331C195.063 159.434 193.578 159.298 190.919 158.963C188.258 158.646 184.412 158.164 179.638 157.722C170.102 156.768 156.885 155.915 142.251 155.625C127.618 155.359 114.36 155.694 104.777 156.215C99.98 156.441 96.1047 156.73 93.4222 156.914C90.7429 157.109 89.2555 157.167 89.2416 157.06C89.2334 156.956 90.7034 156.699 93.3747 156.32C96.0435 155.955 99.921 155.502 104.723 155.134C114.318 154.334 127.62 153.829 142.3 154.093C156.973 154.386 170.232 155.413 179.764 156.649C184.535 157.229 188.372 157.874 191.013 158.377C193.651 158.892 195.099 159.226 195.081 159.331ZM164.44 245.645C164.442 245.701 163.931 245.804 162.956 245.951C161.808 246.103 160.395 246.288 158.686 246.52L142.971 248.436C129.704 250.062 111.398 252.527 91.1765 255.277C70.9429 258.033 52.6017 260.319 39.3065 261.655C32.6568 262.323 27.2752 262.81 23.5511 263.065C21.8284 263.17 20.4109 263.256 19.2583 263.331C18.2793 263.373 17.7598 263.368 17.7587 263.311C17.7552 263.255 18.2648 263.155 19.2413 263.005L23.5106 262.439C27.4481 261.957 32.7576 261.312 39.2222 260.522C52.491 258.897 70.7977 256.432 91.028 253.677C111.251 250.923 129.59 248.636 142.891 247.301C149.538 246.629 154.92 246.147 158.649 245.892C160.369 245.786 161.784 245.697 162.939 245.625C163.92 245.583 164.433 245.589 164.44 245.645Z" fill="#263238"/>
</g>
</svg>
